solid left_hand_thumb_0_link
  facet normal -1.000000000e+00 0.000000000e+00 0.000000000e+00
    outer loop
      vertex -1.150000002e-02 -5.000000237e-04 -9.499999695e-03
      vertex -1.150000002e-02 -1.930000074e-02 -9.499999695e-03
      vertex -1.150000002e-02 -5.000000237e-04 9.499999695e-03
    endloop
  endfacet
  facet normal -1.000000000e+00 -0.000000000e+00 0.000000000e+00
    outer loop
      vertex -1.150000002e-02 -5.000000237e-04 9.499999695e-03
      vertex -1.150000002e-02 -1.930000074e-02 -9.499999695e-03
      vertex -1.150000002e-02 -1.930000074e-02 9.499999695e-03
    endloop
  endfacet
  facet normal -9.978589416e-01 -6.540310383e-02 -0.000000000e+00
    outer loop
      vertex -1.150000002e-02 -1.930000074e-02 9.499999695e-03
      vertex -1.150000002e-02 -1.930000074e-02 -9.499999695e-03
      vertex -1.142300386e-02 -2.047473565e-02 -9.499999695e-03
    endloop
  endfacet
  facet normal -9.978589416e-01 -6.540310383e-02 0.000000000e+00
    outer loop
      vertex -1.150000002e-02 -1.930000074e-02 9.499999695e-03
      vertex -1.142300386e-02 -2.047473565e-02 -9.499999695e-03
      vertex -1.142300386e-02 -2.047473565e-02 9.499999695e-03
    endloop
  endfacet
  facet normal -9.807851911e-01 -1.950906515e-01 -0.000000000e+00
    outer loop
      vertex -1.142300386e-02 -2.047473565e-02 9.499999695e-03
      vertex -1.142300386e-02 -2.047473565e-02 -9.499999695e-03
      vertex -1.119333226e-02 -2.162937075e-02 -9.499999695e-03
    endloop
  endfacet
  facet normal -9.807851911e-01 -1.950906515e-01 0.000000000e+00
    outer loop
      vertex -1.142300386e-02 -2.047473565e-02 9.499999695e-03
      vertex -1.119333226e-02 -2.162937075e-02 -9.499999695e-03
      vertex -1.119333226e-02 -2.162937075e-02 9.499999695e-03
    endloop
  endfacet
  facet normal -9.469301105e-01 -3.214394748e-01 -0.000000000e+00
    outer loop
      vertex -1.119333226e-02 -2.162937075e-02 9.499999695e-03
      vertex -1.119333226e-02 -2.162937075e-02 -9.499999695e-03
      vertex -1.081491541e-02 -2.274415083e-02 -9.499999695e-03
    endloop
  endfacet
  facet normal -9.469301105e-01 -3.214394748e-01 0.000000000e+00
    outer loop
      vertex -1.119333226e-02 -2.162937075e-02 9.499999695e-03
      vertex -1.081491541e-02 -2.274415083e-02 -9.499999695e-03
      vertex -1.081491541e-02 -2.274415083e-02 9.499999695e-03
    endloop
  endfacet
  facet normal -8.968729973e-01 -4.422881305e-01 -0.000000000e+00
    outer loop
      vertex -1.081491541e-02 -2.274415083e-02 9.499999695e-03
      vertex -1.081491541e-02 -2.274415083e-02 -9.499999695e-03
      vertex -1.029422879e-02 -2.380000055e-02 -9.499999695e-03
    endloop
  endfacet
  facet normal -8.968729973e-01 -4.422881305e-01 0.000000000e+00
    outer loop
      vertex -1.081491541e-02 -2.274415083e-02 9.499999695e-03
      vertex -1.029422879e-02 -2.380000055e-02 -9.499999695e-03
      vertex -1.029422879e-02 -2.380000055e-02 9.499999695e-03
    endloop
  endfacet
  facet normal -8.314694166e-01 -5.555705428e-01 -0.000000000e+00
    outer loop
      vertex -1.029422879e-02 -2.380000055e-02 9.499999695e-03
      vertex -1.029422879e-02 -2.380000055e-02 -9.499999695e-03
      vertex -9.640180506e-03 -2.477885224e-02 -9.499999695e-03
    endloop
  endfacet
  facet normal -8.314694166e-01 -5.555705428e-01 0.000000000e+00
    outer loop
      vertex -1.029422879e-02 -2.380000055e-02 9.499999695e-03
      vertex -9.640180506e-03 -2.477885224e-02 -9.499999695e-03
      vertex -9.640180506e-03 -2.477885224e-02 9.499999695e-03
    endloop
  endfacet
  facet normal -7.518398762e-01 -6.593457460e-01 -0.000000000e+00
    outer loop
      vertex -9.640180506e-03 -2.477885224e-02 9.499999695e-03
      vertex -9.640180506e-03 -2.477885224e-02 -9.499999695e-03
      vertex -8.863961324e-03 -2.566396073e-02 -9.499999695e-03
    endloop
  endfacet
  facet normal -7.518398762e-01 -6.593457460e-01 0.000000000e+00
    outer loop
      vertex -9.640180506e-03 -2.477885224e-02 9.499999695e-03
      vertex -8.863961324e-03 -2.566396073e-02 -9.499999695e-03
      vertex -8.863961324e-03 -2.566396073e-02 9.499999695e-03
    endloop
  endfacet
  facet normal -6.593462229e-01 -7.518394589e-01 -0.000000000e+00
    outer loop
      vertex -8.863961324e-03 -2.566396073e-02 9.499999695e-03
      vertex -8.863961324e-03 -2.566396073e-02 -9.499999695e-03
      vertex -7.978852838e-03 -2.644018084e-02 -9.499999695e-03
    endloop
  endfacet
  facet normal -6.593462229e-01 -7.518394589e-01 0.000000000e+00
    outer loop
      vertex -8.863961324e-03 -2.566396073e-02 9.499999695e-03
      vertex -7.978852838e-03 -2.644018084e-02 -9.499999695e-03
      vertex -7.978852838e-03 -2.644018084e-02 9.499999695e-03
    endloop
  endfacet
  facet normal -5.555695891e-01 -8.314700127e-01 -0.000000000e+00
    outer loop
      vertex -7.978852838e-03 -2.644018084e-02 9.499999695e-03
      vertex -7.978852838e-03 -2.644018084e-02 -9.499999695e-03
      vertex -7.000000216e-03 -2.709422819e-02 -9.499999695e-03
    endloop
  endfacet
  facet normal -5.555695891e-01 -8.314700127e-01 0.000000000e+00
    outer loop
      vertex -7.978852838e-03 -2.644018084e-02 9.499999695e-03
      vertex -7.000000216e-03 -2.709422819e-02 -9.499999695e-03
      vertex -7.000000216e-03 -2.709422819e-02 9.499999695e-03
    endloop
  endfacet
  facet normal -4.422889054e-01 -8.968726397e-01 -0.000000000e+00
    outer loop
      vertex -7.000000216e-03 -2.709422819e-02 9.499999695e-03
      vertex -7.000000216e-03 -2.709422819e-02 -9.499999695e-03
      vertex -5.944150966e-03 -2.761491574e-02 -9.499999695e-03
    endloop
  endfacet
  facet normal -4.422889054e-01 -8.968726397e-01 0.000000000e+00
    outer loop
      vertex -7.000000216e-03 -2.709422819e-02 9.499999695e-03
      vertex -5.944150966e-03 -2.761491574e-02 -9.499999695e-03
      vertex -5.944150966e-03 -2.761491574e-02 9.499999695e-03
    endloop
  endfacet
  facet normal -3.214395940e-01 -9.469301105e-01 -0.000000000e+00
    outer loop
      vertex -5.944150966e-03 -2.761491574e-02 9.499999695e-03
      vertex -5.944150966e-03 -2.761491574e-02 -9.499999695e-03
      vertex -4.829371348e-03 -2.799333259e-02 -9.499999695e-03
    endloop
  endfacet
  facet normal -3.214395940e-01 -9.469301105e-01 0.000000000e+00
    outer loop
      vertex -5.944150966e-03 -2.761491574e-02 9.499999695e-03
      vertex -4.829371348e-03 -2.799333259e-02 -9.499999695e-03
      vertex -4.829371348e-03 -2.799333259e-02 9.499999695e-03
    endloop
  endfacet
  facet normal -1.950905770e-01 -9.807852507e-01 -0.000000000e+00
    outer loop
      vertex -4.829371348e-03 -2.799333259e-02 9.499999695e-03
      vertex -4.829371348e-03 -2.799333259e-02 -9.499999695e-03
      vertex -3.674735781e-03 -2.822300419e-02 -9.499999695e-03
    endloop
  endfacet
  facet normal -1.950905770e-01 -9.807852507e-01 0.000000000e+00
    outer loop
      vertex -4.829371348e-03 -2.799333259e-02 9.499999695e-03
      vertex -3.674735781e-03 -2.822300419e-02 -9.499999695e-03
      vertex -3.674735781e-03 -2.822300419e-02 9.499999695e-03
    endloop
  endfacet
  facet normal -6.540305167e-02 -9.978589416e-01 -0.000000000e+00
    outer loop
      vertex -3.674735781e-03 -2.822300419e-02 9.499999695e-03
      vertex -3.674735781e-03 -2.822300419e-02 -9.499999695e-03
      vertex -2.499999944e-03 -2.830000035e-02 -9.499999695e-03
    endloop
  endfacet
  facet normal -6.540305167e-02 -9.978589416e-01 0.000000000e+00
    outer loop
      vertex -3.674735781e-03 -2.822300419e-02 9.499999695e-03
      vertex -2.499999944e-03 -2.830000035e-02 -9.499999695e-03
      vertex -2.499999944e-03 -2.830000035e-02 9.499999695e-03
    endloop
  endfacet
  facet normal -0.000000000e+00 -1.000000000e+00 -0.000000000e+00
    outer loop
      vertex 7.392893080e-03 -2.830000035e-02 9.499999695e-03
      vertex -2.499999944e-03 -2.830000035e-02 9.499999695e-03
      vertex 7.392893080e-03 -2.830000035e-02 -9.499999695e-03
    endloop
  endfacet
  facet normal 0.000000000e+00 -1.000000000e+00 0.000000000e+00
    outer loop
      vertex 7.392893080e-03 -2.830000035e-02 -9.499999695e-03
      vertex -2.499999944e-03 -2.830000035e-02 9.499999695e-03
      vertex -2.499999944e-03 -2.830000035e-02 -9.499999695e-03
    endloop
  endfacet
  facet normal 7.071068287e-01 -7.071067095e-01 0.000000000e+00
    outer loop
      vertex 7.746446412e-03 -2.815355361e-02 -9.499999695e-03
      vertex 9.953553788e-03 -2.594644576e-02 -9.499999695e-03
      vertex 7.746446412e-03 -2.815355361e-02 9.499999695e-03
    endloop
  endfacet
  facet normal 7.071068287e-01 -7.071067095e-01 0.000000000e+00
    outer loop
      vertex 7.746446412e-03 -2.815355361e-02 9.499999695e-03
      vertex 9.953553788e-03 -2.594644576e-02 -9.499999695e-03
      vertex 9.953553788e-03 -2.594644576e-02 9.499999695e-03
    endloop
  endfacet
  facet normal 1.000000000e+00 0.000000000e+00 0.000000000e+00
    outer loop
      vertex 1.009999961e-02 -2.559289336e-02 -9.499999695e-03
      vertex 1.009999961e-02 -5.000000237e-04 -9.499999695e-03
      vertex 1.009999961e-02 -2.559289336e-02 9.499999695e-03
    endloop
  endfacet
  facet normal 1.000000000e+00 -0.000000000e+00 0.000000000e+00
    outer loop
      vertex 1.009999961e-02 -2.559289336e-02 9.499999695e-03
      vertex 1.009999961e-02 -5.000000237e-04 -9.499999695e-03
      vertex 1.009999961e-02 -5.000000237e-04 9.499999695e-03
    endloop
  endfacet
  facet normal -1.224646720e-16 1.000000000e+00 0.000000000e+00
    outer loop
      vertex -1.099999994e-02 -2.584004700e-18 9.499999695e-03
      vertex 9.600000456e-03 -6.123234211e-20 9.499999695e-03
      vertex -1.099999994e-02 -2.584004700e-18 -9.499999695e-03
    endloop
  endfacet
  facet normal -1.224646720e-16 1.000000000e+00 0.000000000e+00
    outer loop
      vertex -1.099999994e-02 -2.584004700e-18 -9.499999695e-03
      vertex 9.600000456e-03 -6.123234211e-20 9.499999695e-03
      vertex 9.600000456e-03 -6.123234211e-20 -9.499999695e-03
    endloop
  endfacet
  facet normal -0.000000000e+00 0.000000000e+00 1.000000000e+00
    outer loop
      vertex -1.149240416e-02 -4.131759051e-04 9.499999695e-03
      vertex -1.150000002e-02 -5.000000237e-04 9.499999695e-03
      vertex -1.099999994e-02 -2.493664997e-18 9.499999695e-03
    endloop
  endfacet
  facet normal -0.000000000e+00 0.000000000e+00 1.000000000e+00
    outer loop
      vertex -1.099999994e-02 -2.493664997e-18 9.499999695e-03
      vertex -1.150000002e-02 -5.000000237e-04 9.499999695e-03
      vertex 9.600000456e-03 -6.123234211e-20 9.499999695e-03
    endloop
  endfacet
  facet normal -0.000000000e+00 -0.000000000e+00 1.000000000e+00
    outer loop
      vertex -1.142300386e-02 -2.047473565e-02 9.499999695e-03
      vertex -3.674735781e-03 -2.822300419e-02 9.499999695e-03
      vertex -1.150000002e-02 -1.930000074e-02 9.499999695e-03
    endloop
  endfacet
  facet normal 0.000000000e+00 0.000000000e+00 1.000000000e+00
    outer loop
      vertex -1.150000002e-02 -1.930000074e-02 9.499999695e-03
      vertex -3.674735781e-03 -2.822300419e-02 9.499999695e-03
      vertex -2.499999944e-03 -2.830000035e-02 9.499999695e-03
    endloop
  endfacet
  facet normal 0.000000000e+00 0.000000000e+00 1.000000000e+00
    outer loop
      vertex -1.150000002e-02 -1.930000074e-02 9.499999695e-03
      vertex -2.499999944e-03 -2.830000035e-02 9.499999695e-03
      vertex 9.953553788e-03 -2.594644576e-02 9.499999695e-03
    endloop
  endfacet
  facet normal 0.000000000e+00 0.000000000e+00 1.000000000e+00
    outer loop
      vertex 9.953553788e-03 -2.594644576e-02 9.499999695e-03
      vertex -2.499999944e-03 -2.830000035e-02 9.499999695e-03
      vertex 7.392893080e-03 -2.830000035e-02 9.499999695e-03
    endloop
  endfacet
  facet normal 0.000000000e+00 0.000000000e+00 1.000000000e+00
    outer loop
      vertex 9.953553788e-03 -2.594644576e-02 9.499999695e-03
      vertex 7.392893080e-03 -2.830000035e-02 9.499999695e-03
      vertex 7.746446412e-03 -2.815355361e-02 9.499999695e-03
    endloop
  endfacet
  facet normal 0.000000000e+00 -0.000000000e+00 1.000000000e+00
    outer loop
      vertex 9.953553788e-03 -2.594644576e-02 9.499999695e-03
      vertex 1.000450831e-02 -2.588678524e-02 9.499999695e-03
      vertex -1.150000002e-02 -1.930000074e-02 9.499999695e-03
    endloop
  endfacet
  facet normal 0.000000000e+00 0.000000000e+00 1.000000000e+00
    outer loop
      vertex -1.150000002e-02 -1.930000074e-02 9.499999695e-03
      vertex 1.000450831e-02 -2.588678524e-02 9.499999695e-03
      vertex 1.004550327e-02 -2.581988834e-02 9.499999695e-03
    endloop
  endfacet
  facet normal 0.000000000e+00 0.000000000e+00 1.000000000e+00
    outer loop
      vertex -1.150000002e-02 -1.930000074e-02 9.499999695e-03
      vertex 1.004550327e-02 -2.581988834e-02 9.499999695e-03
      vertex 1.007552817e-02 -2.574740164e-02 9.499999695e-03
    endloop
  endfacet
  facet normal 0.000000000e+00 0.000000000e+00 1.000000000e+00
    outer loop
      vertex 9.600000456e-03 -6.123234211e-20 9.499999695e-03
      vertex 1.006984618e-02 -3.289899323e-04 9.499999695e-03
      vertex 1.003301237e-02 -2.500000119e-04 9.499999695e-03
    endloop
  endfacet
  facet normal 0.000000000e+00 0.000000000e+00 1.000000000e+00
    outer loop
      vertex 9.921393357e-03 -1.169777752e-04 9.499999695e-03
      vertex 9.850000031e-03 -6.698729703e-05 9.499999695e-03
      vertex 9.771009907e-03 -3.015368929e-05 9.499999695e-03
    endloop
  endfacet
  facet normal 0.000000000e+00 0.000000000e+00 1.000000000e+00
    outer loop
      vertex 7.547401823e-03 -2.827552892e-02 9.499999695e-03
      vertex 7.619888522e-03 -2.824550308e-02 9.499999695e-03
      vertex 7.686785888e-03 -2.820450813e-02 9.499999695e-03
    endloop
  endfacet
  facet normal 0.000000000e+00 -0.000000000e+00 1.000000000e+00
    outer loop
      vertex 1.007552817e-02 -2.574740164e-02 9.499999695e-03
      vertex 1.009384450e-02 -2.567110956e-02 9.499999695e-03
      vertex -1.150000002e-02 -1.930000074e-02 9.499999695e-03
    endloop
  endfacet
  facet normal 0.000000000e+00 0.000000000e+00 1.000000000e+00
    outer loop
      vertex -1.150000002e-02 -1.930000074e-02 9.499999695e-03
      vertex 1.009384450e-02 -2.567110956e-02 9.499999695e-03
      vertex 1.009999961e-02 -2.559289336e-02 9.499999695e-03
    endloop
  endfacet
  facet normal -0.000000000e+00 0.000000000e+00 1.000000000e+00
    outer loop
      vertex -1.150000002e-02 -1.930000074e-02 9.499999695e-03
      vertex 1.009999961e-02 -2.559289336e-02 9.499999695e-03
      vertex -1.150000002e-02 -5.000000237e-04 9.499999695e-03
    endloop
  endfacet
  facet normal -0.000000000e+00 0.000000000e+00 1.000000000e+00
    outer loop
      vertex -1.150000002e-02 -5.000000237e-04 9.499999695e-03
      vertex 1.009999961e-02 -2.559289336e-02 9.499999695e-03
      vertex 1.009999961e-02 -5.000000237e-04 9.499999695e-03
    endloop
  endfacet
  facet normal 0.000000000e+00 0.000000000e+00 1.000000000e+00
    outer loop
      vertex -1.150000002e-02 -5.000000237e-04 9.499999695e-03
      vertex 1.009999961e-02 -5.000000237e-04 9.499999695e-03
      vertex 9.600000456e-03 -6.123234211e-20 9.499999695e-03
    endloop
  endfacet
  facet normal 0.000000000e+00 0.000000000e+00 1.000000000e+00
    outer loop
      vertex 9.600000456e-03 -6.123234211e-20 9.499999695e-03
      vertex 1.009999961e-02 -5.000000237e-04 9.499999695e-03
      vertex 1.009240374e-02 -4.131759051e-04 9.499999695e-03
    endloop
  endfacet
  facet normal 0.000000000e+00 0.000000000e+00 1.000000000e+00
    outer loop
      vertex 9.600000456e-03 -6.123234211e-20 9.499999695e-03
      vertex 1.009240374e-02 -4.131759051e-04 9.499999695e-03
      vertex 1.006984618e-02 -3.289899323e-04 9.499999695e-03
    endloop
  endfacet
  facet normal 0.000000000e+00 0.000000000e+00 1.000000000e+00
    outer loop
      vertex 1.003301237e-02 -2.500000119e-04 9.499999695e-03
      vertex 9.983021766e-03 -1.786061912e-04 9.499999695e-03
      vertex 9.600000456e-03 -6.123234211e-20 9.499999695e-03
    endloop
  endfacet
  facet normal 0.000000000e+00 0.000000000e+00 1.000000000e+00
    outer loop
      vertex 9.600000456e-03 -6.123234211e-20 9.499999695e-03
      vertex 9.983021766e-03 -1.786061912e-04 9.499999695e-03
      vertex 9.921393357e-03 -1.169777752e-04 9.499999695e-03
    endloop
  endfacet
  facet normal 0.000000000e+00 0.000000000e+00 1.000000000e+00
    outer loop
      vertex 9.600000456e-03 -6.123234211e-20 9.499999695e-03
      vertex 9.921393357e-03 -1.169777752e-04 9.499999695e-03
      vertex 9.686823934e-03 -7.596123396e-06 9.499999695e-03
    endloop
  endfacet
  facet normal 0.000000000e+00 0.000000000e+00 1.000000000e+00
    outer loop
      vertex 9.686823934e-03 -7.596123396e-06 9.499999695e-03
      vertex 9.921393357e-03 -1.169777752e-04 9.499999695e-03
      vertex 9.771009907e-03 -3.015368929e-05 9.499999695e-03
    endloop
  endfacet
  facet normal 0.000000000e+00 0.000000000e+00 1.000000000e+00
    outer loop
      vertex -1.099999994e-02 -2.493664997e-18 9.499999695e-03
      vertex -1.132139377e-02 -1.169777752e-04 9.499999695e-03
      vertex -1.138302218e-02 -1.786061912e-04 9.499999695e-03
    endloop
  endfacet
  facet normal -0.000000000e+00 -0.000000000e+00 1.000000000e+00
    outer loop
      vertex -1.029422879e-02 -2.380000055e-02 9.499999695e-03
      vertex -9.640180506e-03 -2.477885224e-02 9.499999695e-03
      vertex -1.081491541e-02 -2.274415083e-02 9.499999695e-03
    endloop
  endfacet
  facet normal 0.000000000e+00 0.000000000e+00 1.000000000e+00
    outer loop
      vertex -1.081491541e-02 -2.274415083e-02 9.499999695e-03
      vertex -9.640180506e-03 -2.477885224e-02 9.499999695e-03
      vertex -8.863961324e-03 -2.566396073e-02 9.499999695e-03
    endloop
  endfacet
  facet normal -0.000000000e+00 -0.000000000e+00 1.000000000e+00
    outer loop
      vertex -8.863961324e-03 -2.566396073e-02 9.499999695e-03
      vertex -7.978852838e-03 -2.644018084e-02 9.499999695e-03
      vertex -1.081491541e-02 -2.274415083e-02 9.499999695e-03
    endloop
  endfacet
  facet normal 0.000000000e+00 0.000000000e+00 1.000000000e+00
    outer loop
      vertex -1.081491541e-02 -2.274415083e-02 9.499999695e-03
      vertex -7.978852838e-03 -2.644018084e-02 9.499999695e-03
      vertex -7.000000216e-03 -2.709422819e-02 9.499999695e-03
    endloop
  endfacet
  facet normal 0.000000000e+00 0.000000000e+00 1.000000000e+00
    outer loop
      vertex -1.081491541e-02 -2.274415083e-02 9.499999695e-03
      vertex -7.000000216e-03 -2.709422819e-02 9.499999695e-03
      vertex -5.944150966e-03 -2.761491574e-02 9.499999695e-03
    endloop
  endfacet
  facet normal 0.000000000e+00 0.000000000e+00 1.000000000e+00
    outer loop
      vertex -1.132139377e-02 -1.169777752e-04 9.499999695e-03
      vertex -1.099999994e-02 -2.493664997e-18 9.499999695e-03
      vertex -1.125000045e-02 -6.698729703e-05 9.499999695e-03
    endloop
  endfacet
  facet normal 0.000000000e+00 0.000000000e+00 1.000000000e+00
    outer loop
      vertex -1.125000045e-02 -6.698729703e-05 9.499999695e-03
      vertex -1.099999994e-02 -2.493664997e-18 9.499999695e-03
      vertex -1.108682435e-02 -7.596123396e-06 9.499999695e-03
    endloop
  endfacet
  facet normal 0.000000000e+00 0.000000000e+00 1.000000000e+00
    outer loop
      vertex -1.125000045e-02 -6.698729703e-05 9.499999695e-03
      vertex -1.108682435e-02 -7.596123396e-06 9.499999695e-03
      vertex -1.117101032e-02 -3.015368929e-05 9.499999695e-03
    endloop
  endfacet
  facet normal -0.000000000e+00 0.000000000e+00 1.000000000e+00
    outer loop
      vertex -1.138302218e-02 -1.786061912e-04 9.499999695e-03
      vertex -1.143301278e-02 -2.500000119e-04 9.499999695e-03
      vertex -1.099999994e-02 -2.493664997e-18 9.499999695e-03
    endloop
  endfacet
  facet normal 0.000000000e+00 0.000000000e+00 1.000000000e+00
    outer loop
      vertex -1.099999994e-02 -2.493664997e-18 9.499999695e-03
      vertex -1.143301278e-02 -2.500000119e-04 9.499999695e-03
      vertex -1.146984659e-02 -3.289899323e-04 9.499999695e-03
    endloop
  endfacet
  facet normal 0.000000000e+00 0.000000000e+00 1.000000000e+00
    outer loop
      vertex -1.099999994e-02 -2.493664997e-18 9.499999695e-03
      vertex -1.146984659e-02 -3.289899323e-04 9.499999695e-03
      vertex -1.149240416e-02 -4.131759051e-04 9.499999695e-03
    endloop
  endfacet
  facet normal 0.000000000e+00 0.000000000e+00 1.000000000e+00
    outer loop
      vertex -1.142300386e-02 -2.047473565e-02 9.499999695e-03
      vertex -1.119333226e-02 -2.162937075e-02 9.499999695e-03
      vertex -3.674735781e-03 -2.822300419e-02 9.499999695e-03
    endloop
  endfacet
  facet normal 0.000000000e+00 0.000000000e+00 1.000000000e+00
    outer loop
      vertex -3.674735781e-03 -2.822300419e-02 9.499999695e-03
      vertex -1.119333226e-02 -2.162937075e-02 9.499999695e-03
      vertex -1.081491541e-02 -2.274415083e-02 9.499999695e-03
    endloop
  endfacet
  facet normal 0.000000000e+00 0.000000000e+00 1.000000000e+00
    outer loop
      vertex -3.674735781e-03 -2.822300419e-02 9.499999695e-03
      vertex -1.081491541e-02 -2.274415083e-02 9.499999695e-03
      vertex -4.829371348e-03 -2.799333259e-02 9.499999695e-03
    endloop
  endfacet
  facet normal 0.000000000e+00 0.000000000e+00 1.000000000e+00
    outer loop
      vertex -4.829371348e-03 -2.799333259e-02 9.499999695e-03
      vertex -1.081491541e-02 -2.274415083e-02 9.499999695e-03
      vertex -5.944150966e-03 -2.761491574e-02 9.499999695e-03
    endloop
  endfacet
  facet normal 0.000000000e+00 0.000000000e+00 1.000000000e+00
    outer loop
      vertex 7.746446412e-03 -2.815355361e-02 9.499999695e-03
      vertex 7.392893080e-03 -2.830000035e-02 9.499999695e-03
      vertex 7.686785888e-03 -2.820450813e-02 9.499999695e-03
    endloop
  endfacet
  facet normal 0.000000000e+00 0.000000000e+00 1.000000000e+00
    outer loop
      vertex 7.686785888e-03 -2.820450813e-02 9.499999695e-03
      vertex 7.392893080e-03 -2.830000035e-02 9.499999695e-03
      vertex 7.471110672e-03 -2.829384431e-02 9.499999695e-03
    endloop
  endfacet
  facet normal 0.000000000e+00 0.000000000e+00 1.000000000e+00
    outer loop
      vertex 7.686785888e-03 -2.820450813e-02 9.499999695e-03
      vertex 7.471110672e-03 -2.829384431e-02 9.499999695e-03
      vertex 7.547401823e-03 -2.827552892e-02 9.499999695e-03
    endloop
  endfacet
  facet normal -0.000000000e+00 0.000000000e+00 -1.000000000e+00
    outer loop
      vertex 1.007552817e-02 -2.574740164e-02 -9.499999695e-03
      vertex 1.004550327e-02 -2.581988834e-02 -9.499999695e-03
      vertex -1.099999994e-02 -2.584004700e-18 -9.499999695e-03
    endloop
  endfacet
  facet normal 0.000000000e+00 0.000000000e+00 -1.000000000e+00
    outer loop
      vertex -1.149240416e-02 -4.131759051e-04 -9.499999695e-03
      vertex -1.146984659e-02 -3.289899323e-04 -9.499999695e-03
      vertex -1.099999994e-02 -2.584004700e-18 -9.499999695e-03
    endloop
  endfacet
  facet normal 0.000000000e+00 0.000000000e+00 -1.000000000e+00
    outer loop
      vertex 1.007552817e-02 -2.574740164e-02 -9.499999695e-03
      vertex -1.099999994e-02 -2.584004700e-18 -9.499999695e-03
      vertex 1.009384450e-02 -2.567110956e-02 -9.499999695e-03
    endloop
  endfacet
  facet normal -0.000000000e+00 0.000000000e+00 -1.000000000e+00
    outer loop
      vertex 1.004550327e-02 -2.581988834e-02 -9.499999695e-03
      vertex 1.000450831e-02 -2.588678524e-02 -9.499999695e-03
      vertex -1.099999994e-02 -2.584004700e-18 -9.499999695e-03
    endloop
  endfacet
  facet normal 0.000000000e+00 0.000000000e+00 -1.000000000e+00
    outer loop
      vertex -1.099999994e-02 -2.584004700e-18 -9.499999695e-03
      vertex 1.000450831e-02 -2.588678524e-02 -9.499999695e-03
      vertex 9.953553788e-03 -2.594644576e-02 -9.499999695e-03
    endloop
  endfacet
  facet normal 0.000000000e+00 0.000000000e+00 -1.000000000e+00
    outer loop
      vertex -1.099999994e-02 -2.584004700e-18 -9.499999695e-03
      vertex 9.953553788e-03 -2.594644576e-02 -9.499999695e-03
      vertex 7.746446412e-03 -2.815355361e-02 -9.499999695e-03
    endloop
  endfacet
  facet normal -0.000000000e+00 0.000000000e+00 -1.000000000e+00
    outer loop
      vertex 7.547401823e-03 -2.827552892e-02 -9.499999695e-03
      vertex 7.471110672e-03 -2.829384431e-02 -9.499999695e-03
      vertex -1.099999994e-02 -2.584004700e-18 -9.499999695e-03
    endloop
  endfacet
  facet normal 0.000000000e+00 0.000000000e+00 -1.000000000e+00
    outer loop
      vertex -1.099999994e-02 -2.584004700e-18 -9.499999695e-03
      vertex 7.471110672e-03 -2.829384431e-02 -9.499999695e-03
      vertex 7.392893080e-03 -2.830000035e-02 -9.499999695e-03
    endloop
  endfacet
  facet normal 0.000000000e+00 0.000000000e+00 -1.000000000e+00
    outer loop
      vertex -1.099999994e-02 -2.584004700e-18 -9.499999695e-03
      vertex 7.392893080e-03 -2.830000035e-02 -9.499999695e-03
      vertex -2.499999944e-03 -2.830000035e-02 -9.499999695e-03
    endloop
  endfacet
  facet normal 0.000000000e+00 0.000000000e+00 -1.000000000e+00
    outer loop
      vertex -1.119333226e-02 -2.162937075e-02 -9.499999695e-03
      vertex -1.142300386e-02 -2.047473565e-02 -9.499999695e-03
      vertex -3.674735781e-03 -2.822300419e-02 -9.499999695e-03
    endloop
  endfacet
  facet normal 0.000000000e+00 0.000000000e+00 -1.000000000e+00
    outer loop
      vertex -3.674735781e-03 -2.822300419e-02 -9.499999695e-03
      vertex -1.142300386e-02 -2.047473565e-02 -9.499999695e-03
      vertex -1.150000002e-02 -1.930000074e-02 -9.499999695e-03
    endloop
  endfacet
  facet normal 0.000000000e+00 0.000000000e+00 -1.000000000e+00
    outer loop
      vertex -3.674735781e-03 -2.822300419e-02 -9.499999695e-03
      vertex -1.150000002e-02 -1.930000074e-02 -9.499999695e-03
      vertex -2.499999944e-03 -2.830000035e-02 -9.499999695e-03
    endloop
  endfacet
  facet normal 0.000000000e+00 0.000000000e+00 -1.000000000e+00
    outer loop
      vertex -2.499999944e-03 -2.830000035e-02 -9.499999695e-03
      vertex -1.150000002e-02 -1.930000074e-02 -9.499999695e-03
      vertex -1.099999994e-02 -2.584004700e-18 -9.499999695e-03
    endloop
  endfacet
  facet normal 0.000000000e+00 0.000000000e+00 -1.000000000e+00
    outer loop
      vertex -1.099999994e-02 -2.584004700e-18 -9.499999695e-03
      vertex -1.150000002e-02 -1.930000074e-02 -9.499999695e-03
      vertex -1.150000002e-02 -5.000000237e-04 -9.499999695e-03
    endloop
  endfacet
  facet normal 0.000000000e+00 0.000000000e+00 -1.000000000e+00
    outer loop
      vertex -1.099999994e-02 -2.584004700e-18 -9.499999695e-03
      vertex -1.150000002e-02 -5.000000237e-04 -9.499999695e-03
      vertex -1.149240416e-02 -4.131759051e-04 -9.499999695e-03
    endloop
  endfacet
  facet normal -0.000000000e+00 -0.000000000e+00 -1.000000000e+00
    outer loop
      vertex 1.003301237e-02 -2.500000119e-04 -9.499999695e-03
      vertex 1.006984618e-02 -3.289899323e-04 -9.499999695e-03
      vertex 9.600000456e-03 0.000000000e+00 -9.499999695e-03
    endloop
  endfacet
  facet normal 0.000000000e+00 0.000000000e+00 -1.000000000e+00
    outer loop
      vertex -7.978852838e-03 -2.644018084e-02 -9.499999695e-03
      vertex -8.863961324e-03 -2.566396073e-02 -9.499999695e-03
      vertex -9.640180506e-03 -2.477885224e-02 -9.499999695e-03
    endloop
  endfacet
  facet normal 0.000000000e+00 0.000000000e+00 -1.000000000e+00
    outer loop
      vertex 9.771009907e-03 -3.015368929e-05 -9.499999695e-03
      vertex 9.850000031e-03 -6.698729703e-05 -9.499999695e-03
      vertex 9.921393357e-03 -1.169777752e-04 -9.499999695e-03
    endloop
  endfacet
  facet normal -0.000000000e+00 -0.000000000e+00 -1.000000000e+00
    outer loop
      vertex 1.006984618e-02 -3.289899323e-04 -9.499999695e-03
      vertex 1.009240374e-02 -4.131759051e-04 -9.499999695e-03
      vertex 9.600000456e-03 0.000000000e+00 -9.499999695e-03
    endloop
  endfacet
  facet normal 0.000000000e+00 0.000000000e+00 -1.000000000e+00
    outer loop
      vertex 9.600000456e-03 0.000000000e+00 -9.499999695e-03
      vertex 1.009240374e-02 -4.131759051e-04 -9.499999695e-03
      vertex 1.009999961e-02 -5.000000237e-04 -9.499999695e-03
    endloop
  endfacet
  facet normal 0.000000000e+00 -0.000000000e+00 -1.000000000e+00
    outer loop
      vertex 9.600000456e-03 0.000000000e+00 -9.499999695e-03
      vertex 1.009999961e-02 -5.000000237e-04 -9.499999695e-03
      vertex -1.099999994e-02 -2.584004700e-18 -9.499999695e-03
    endloop
  endfacet
  facet normal 0.000000000e+00 0.000000000e+00 -1.000000000e+00
    outer loop
      vertex -1.099999994e-02 -2.584004700e-18 -9.499999695e-03
      vertex 1.009999961e-02 -5.000000237e-04 -9.499999695e-03
      vertex 1.009999961e-02 -2.559289336e-02 -9.499999695e-03
    endloop
  endfacet
  facet normal 0.000000000e+00 0.000000000e+00 -1.000000000e+00
    outer loop
      vertex -1.099999994e-02 -2.584004700e-18 -9.499999695e-03
      vertex 1.009999961e-02 -2.559289336e-02 -9.499999695e-03
      vertex 1.009384450e-02 -2.567110956e-02 -9.499999695e-03
    endloop
  endfacet
  facet normal 0.000000000e+00 0.000000000e+00 -1.000000000e+00
    outer loop
      vertex -5.944150966e-03 -2.761491574e-02 -9.499999695e-03
      vertex -7.000000216e-03 -2.709422819e-02 -9.499999695e-03
      vertex -1.081491541e-02 -2.274415083e-02 -9.499999695e-03
    endloop
  endfacet
  facet normal 0.000000000e+00 0.000000000e+00 -1.000000000e+00
    outer loop
      vertex -1.081491541e-02 -2.274415083e-02 -9.499999695e-03
      vertex -7.000000216e-03 -2.709422819e-02 -9.499999695e-03
      vertex -7.978852838e-03 -2.644018084e-02 -9.499999695e-03
    endloop
  endfacet
  facet normal 0.000000000e+00 0.000000000e+00 -1.000000000e+00
    outer loop
      vertex -1.081491541e-02 -2.274415083e-02 -9.499999695e-03
      vertex -7.978852838e-03 -2.644018084e-02 -9.499999695e-03
      vertex -1.029422879e-02 -2.380000055e-02 -9.499999695e-03
    endloop
  endfacet
  facet normal 0.000000000e+00 0.000000000e+00 -1.000000000e+00
    outer loop
      vertex -1.029422879e-02 -2.380000055e-02 -9.499999695e-03
      vertex -7.978852838e-03 -2.644018084e-02 -9.499999695e-03
      vertex -9.640180506e-03 -2.477885224e-02 -9.499999695e-03
    endloop
  endfacet
  facet normal 0.000000000e+00 0.000000000e+00 -1.000000000e+00
    outer loop
      vertex -1.146984659e-02 -3.289899323e-04 -9.499999695e-03
      vertex -1.143301278e-02 -2.500000119e-04 -9.499999695e-03
      vertex -1.099999994e-02 -2.584004700e-18 -9.499999695e-03
    endloop
  endfacet
  facet normal 0.000000000e+00 0.000000000e+00 -1.000000000e+00
    outer loop
      vertex -1.099999994e-02 -2.584004700e-18 -9.499999695e-03
      vertex -1.143301278e-02 -2.500000119e-04 -9.499999695e-03
      vertex -1.138302218e-02 -1.786061912e-04 -9.499999695e-03
    endloop
  endfacet
  facet normal 0.000000000e+00 0.000000000e+00 -1.000000000e+00
    outer loop
      vertex -1.099999994e-02 -2.584004700e-18 -9.499999695e-03
      vertex -1.138302218e-02 -1.786061912e-04 -9.499999695e-03
      vertex -1.132139377e-02 -1.169777752e-04 -9.499999695e-03
    endloop
  endfacet
  facet normal 0.000000000e+00 0.000000000e+00 -1.000000000e+00
    outer loop
      vertex -1.132139377e-02 -1.169777752e-04 -9.499999695e-03
      vertex -1.125000045e-02 -6.698729703e-05 -9.499999695e-03
      vertex -1.099999994e-02 -2.584004700e-18 -9.499999695e-03
    endloop
  endfacet
  facet normal 0.000000000e+00 0.000000000e+00 -1.000000000e+00
    outer loop
      vertex -1.099999994e-02 -2.584004700e-18 -9.499999695e-03
      vertex -1.125000045e-02 -6.698729703e-05 -9.499999695e-03
      vertex -1.117101032e-02 -3.015368929e-05 -9.499999695e-03
    endloop
  endfacet
  facet normal 0.000000000e+00 0.000000000e+00 -1.000000000e+00
    outer loop
      vertex -1.099999994e-02 -2.584004700e-18 -9.499999695e-03
      vertex -1.117101032e-02 -3.015368929e-05 -9.499999695e-03
      vertex -1.108682435e-02 -7.596123396e-06 -9.499999695e-03
    endloop
  endfacet
  facet normal -0.000000000e+00 -0.000000000e+00 -1.000000000e+00
    outer loop
      vertex 9.771009907e-03 -3.015368929e-05 -9.499999695e-03
      vertex 9.921393357e-03 -1.169777752e-04 -9.499999695e-03
      vertex 9.686823934e-03 -7.596123396e-06 -9.499999695e-03
    endloop
  endfacet
  facet normal -0.000000000e+00 0.000000000e+00 -1.000000000e+00
    outer loop
      vertex 7.746446412e-03 -2.815355361e-02 -9.499999695e-03
      vertex 7.686785888e-03 -2.820450813e-02 -9.499999695e-03
      vertex -1.099999994e-02 -2.584004700e-18 -9.499999695e-03
    endloop
  endfacet
  facet normal 0.000000000e+00 0.000000000e+00 -1.000000000e+00
    outer loop
      vertex -1.099999994e-02 -2.584004700e-18 -9.499999695e-03
      vertex 7.686785888e-03 -2.820450813e-02 -9.499999695e-03
      vertex 7.619888522e-03 -2.824550308e-02 -9.499999695e-03
    endloop
  endfacet
  facet normal 0.000000000e+00 0.000000000e+00 -1.000000000e+00
    outer loop
      vertex -1.099999994e-02 -2.584004700e-18 -9.499999695e-03
      vertex 7.619888522e-03 -2.824550308e-02 -9.499999695e-03
      vertex 7.547401823e-03 -2.827552892e-02 -9.499999695e-03
    endloop
  endfacet
  facet normal 0.000000000e+00 0.000000000e+00 -1.000000000e+00
    outer loop
      vertex -1.119333226e-02 -2.162937075e-02 -9.499999695e-03
      vertex -3.674735781e-03 -2.822300419e-02 -9.499999695e-03
      vertex -1.081491541e-02 -2.274415083e-02 -9.499999695e-03
    endloop
  endfacet
  facet normal 0.000000000e+00 0.000000000e+00 -1.000000000e+00
    outer loop
      vertex -1.081491541e-02 -2.274415083e-02 -9.499999695e-03
      vertex -3.674735781e-03 -2.822300419e-02 -9.499999695e-03
      vertex -4.829371348e-03 -2.799333259e-02 -9.499999695e-03
    endloop
  endfacet
  facet normal 0.000000000e+00 0.000000000e+00 -1.000000000e+00
    outer loop
      vertex -1.081491541e-02 -2.274415083e-02 -9.499999695e-03
      vertex -4.829371348e-03 -2.799333259e-02 -9.499999695e-03
      vertex -5.944150966e-03 -2.761491574e-02 -9.499999695e-03
    endloop
  endfacet
  facet normal -0.000000000e+00 -0.000000000e+00 -1.000000000e+00
    outer loop
      vertex 9.686823934e-03 -7.596123396e-06 -9.499999695e-03
      vertex 9.921393357e-03 -1.169777752e-04 -9.499999695e-03
      vertex 9.600000456e-03 0.000000000e+00 -9.499999695e-03
    endloop
  endfacet
  facet normal 0.000000000e+00 0.000000000e+00 -1.000000000e+00
    outer loop
      vertex 9.600000456e-03 0.000000000e+00 -9.499999695e-03
      vertex 9.921393357e-03 -1.169777752e-04 -9.499999695e-03
      vertex 9.983021766e-03 -1.786061912e-04 -9.499999695e-03
    endloop
  endfacet
  facet normal 0.000000000e+00 0.000000000e+00 -1.000000000e+00
    outer loop
      vertex 9.600000456e-03 0.000000000e+00 -9.499999695e-03
      vertex 9.983021766e-03 -1.786061912e-04 -9.499999695e-03
      vertex 1.003301237e-02 -2.500000119e-04 -9.499999695e-03
    endloop
  endfacet
  facet normal 7.846143097e-02 -9.969171286e-01 0.000000000e+00
    outer loop
      vertex 7.392893080e-03 -2.830000035e-02 9.499999695e-03
      vertex 7.392893080e-03 -2.830000035e-02 -9.499999695e-03
      vertex 7.471110672e-03 -2.829384431e-02 -9.499999695e-03
    endloop
  endfacet
  facet normal 7.846143097e-02 -9.969171286e-01 0.000000000e+00
    outer loop
      vertex 7.392893080e-03 -2.830000035e-02 9.499999695e-03
      vertex 7.471110672e-03 -2.829384431e-02 -9.499999695e-03
      vertex 7.471110672e-03 -2.829384431e-02 9.499999695e-03
    endloop
  endfacet
  facet normal 2.334394008e-01 -9.723713398e-01 0.000000000e+00
    outer loop
      vertex 7.471110672e-03 -2.829384431e-02 9.499999695e-03
      vertex 7.471110672e-03 -2.829384431e-02 -9.499999695e-03
      vertex 7.547401823e-03 -2.827552892e-02 -9.499999695e-03
    endloop
  endfacet
  facet normal 2.334394008e-01 -9.723713398e-01 0.000000000e+00
    outer loop
      vertex 7.471110672e-03 -2.829384431e-02 9.499999695e-03
      vertex 7.547401823e-03 -2.827552892e-02 -9.499999695e-03
      vertex 7.547401823e-03 -2.827552892e-02 9.499999695e-03
    endloop
  endfacet
  facet normal 3.826928437e-01 -9.238756299e-01 0.000000000e+00
    outer loop
      vertex 7.547401823e-03 -2.827552892e-02 9.499999695e-03
      vertex 7.547401823e-03 -2.827552892e-02 -9.499999695e-03
      vertex 7.619888522e-03 -2.824550308e-02 -9.499999695e-03
    endloop
  endfacet
  facet normal 3.826928437e-01 -9.238756299e-01 0.000000000e+00
    outer loop
      vertex 7.547401823e-03 -2.827552892e-02 9.499999695e-03
      vertex 7.619888522e-03 -2.824550308e-02 -9.499999695e-03
      vertex 7.619888522e-03 -2.824550308e-02 9.499999695e-03
    endloop
  endfacet
  facet normal 5.225003958e-01 -8.526390195e-01 0.000000000e+00
    outer loop
      vertex 7.619888522e-03 -2.824550308e-02 9.499999695e-03
      vertex 7.619888522e-03 -2.824550308e-02 -9.499999695e-03
      vertex 7.686785888e-03 -2.820450813e-02 -9.499999695e-03
    endloop
  endfacet
  facet normal 5.225003958e-01 -8.526390195e-01 0.000000000e+00
    outer loop
      vertex 7.619888522e-03 -2.824550308e-02 9.499999695e-03
      vertex 7.686785888e-03 -2.820450813e-02 -9.499999695e-03
      vertex 7.686785888e-03 -2.820450813e-02 9.499999695e-03
    endloop
  endfacet
  facet normal 6.494452357e-01 -7.604083419e-01 0.000000000e+00
    outer loop
      vertex 7.686785888e-03 -2.820450813e-02 9.499999695e-03
      vertex 7.686785888e-03 -2.820450813e-02 -9.499999695e-03
      vertex 7.746446412e-03 -2.815355361e-02 -9.499999695e-03
    endloop
  endfacet
  facet normal 6.494452357e-01 -7.604083419e-01 0.000000000e+00
    outer loop
      vertex 7.686785888e-03 -2.820450813e-02 9.499999695e-03
      vertex 7.746446412e-03 -2.815355361e-02 -9.499999695e-03
      vertex 7.746446412e-03 -2.815355361e-02 9.499999695e-03
    endloop
  endfacet
  facet normal 7.604083419e-01 -6.494452357e-01 0.000000000e+00
    outer loop
      vertex 9.953553788e-03 -2.594644576e-02 9.499999695e-03
      vertex 9.953553788e-03 -2.594644576e-02 -9.499999695e-03
      vertex 1.000450831e-02 -2.588678524e-02 -9.499999695e-03
    endloop
  endfacet
  facet normal 7.604083419e-01 -6.494452357e-01 0.000000000e+00
    outer loop
      vertex 9.953553788e-03 -2.594644576e-02 9.499999695e-03
      vertex 1.000450831e-02 -2.588678524e-02 -9.499999695e-03
      vertex 1.000450831e-02 -2.588678524e-02 9.499999695e-03
    endloop
  endfacet
  facet normal 8.526374102e-01 -5.225030184e-01 0.000000000e+00
    outer loop
      vertex 1.000450831e-02 -2.588678524e-02 9.499999695e-03
      vertex 1.000450831e-02 -2.588678524e-02 -9.499999695e-03
      vertex 1.004550327e-02 -2.581988834e-02 -9.499999695e-03
    endloop
  endfacet
  facet normal 8.526374102e-01 -5.225030184e-01 0.000000000e+00
    outer loop
      vertex 1.000450831e-02 -2.588678524e-02 9.499999695e-03
      vertex 1.004550327e-02 -2.581988834e-02 -9.499999695e-03
      vertex 1.004550327e-02 -2.581988834e-02 9.499999695e-03
    endloop
  endfacet
  facet normal 9.238798022e-01 -3.826827109e-01 0.000000000e+00
    outer loop
      vertex 1.004550327e-02 -2.581988834e-02 9.499999695e-03
      vertex 1.004550327e-02 -2.581988834e-02 -9.499999695e-03
      vertex 1.007552817e-02 -2.574740164e-02 -9.499999695e-03
    endloop
  endfacet
  facet normal 9.238798022e-01 -3.826827109e-01 0.000000000e+00
    outer loop
      vertex 1.004550327e-02 -2.581988834e-02 9.499999695e-03
      vertex 1.007552817e-02 -2.574740164e-02 -9.499999695e-03
      vertex 1.007552817e-02 -2.574740164e-02 9.499999695e-03
    endloop
  endfacet
  facet normal 9.723693132e-01 -2.334479243e-01 0.000000000e+00
    outer loop
      vertex 1.007552817e-02 -2.574740164e-02 9.499999695e-03
      vertex 1.007552817e-02 -2.574740164e-02 -9.499999695e-03
      vertex 1.009384450e-02 -2.567110956e-02 -9.499999695e-03
    endloop
  endfacet
  facet normal 9.723693132e-01 -2.334479243e-01 0.000000000e+00
    outer loop
      vertex 1.007552817e-02 -2.574740164e-02 9.499999695e-03
      vertex 1.009384450e-02 -2.567110956e-02 -9.499999695e-03
      vertex 1.009384450e-02 -2.567110956e-02 9.499999695e-03
    endloop
  endfacet
  facet normal 9.969179630e-01 -7.845102251e-02 0.000000000e+00
    outer loop
      vertex 1.009384450e-02 -2.567110956e-02 9.499999695e-03
      vertex 1.009384450e-02 -2.567110956e-02 -9.499999695e-03
      vertex 1.009999961e-02 -2.559289336e-02 -9.499999695e-03
    endloop
  endfacet
  facet normal 9.969179630e-01 -7.845102251e-02 0.000000000e+00
    outer loop
      vertex 1.009384450e-02 -2.567110956e-02 9.499999695e-03
      vertex 1.009999961e-02 -2.559289336e-02 -9.499999695e-03
      vertex 1.009999961e-02 -2.559289336e-02 9.499999695e-03
    endloop
  endfacet
  facet normal -8.715542406e-02 9.961947203e-01 0.000000000e+00
    outer loop
      vertex -1.099999994e-02 -2.493664997e-18 9.499999695e-03
      vertex -1.099999994e-02 -2.493664997e-18 -9.499999695e-03
      vertex -1.108682435e-02 -7.596123396e-06 -9.499999695e-03
    endloop
  endfacet
  facet normal -8.715542406e-02 9.961947203e-01 0.000000000e+00
    outer loop
      vertex -1.099999994e-02 -2.493664997e-18 9.499999695e-03
      vertex -1.108682435e-02 -7.596123396e-06 -9.499999695e-03
      vertex -1.108682435e-02 -7.596123396e-06 9.499999695e-03
    endloop
  endfacet
  facet normal -2.588190734e-01 9.659258127e-01 0.000000000e+00
    outer loop
      vertex -1.108682435e-02 -7.596123396e-06 9.499999695e-03
      vertex -1.108682435e-02 -7.596123396e-06 -9.499999695e-03
      vertex -1.117101032e-02 -3.015368929e-05 -9.499999695e-03
    endloop
  endfacet
  facet normal -2.588190734e-01 9.659258127e-01 0.000000000e+00
    outer loop
      vertex -1.108682435e-02 -7.596123396e-06 9.499999695e-03
      vertex -1.117101032e-02 -3.015368929e-05 -9.499999695e-03
      vertex -1.117101032e-02 -3.015368929e-05 9.499999695e-03
    endloop
  endfacet
  facet normal -4.226174057e-01 9.063081741e-01 0.000000000e+00
    outer loop
      vertex -1.117101032e-02 -3.015368929e-05 9.499999695e-03
      vertex -1.117101032e-02 -3.015368929e-05 -9.499999695e-03
      vertex -1.125000045e-02 -6.698729703e-05 -9.499999695e-03
    endloop
  endfacet
  facet normal -4.226174057e-01 9.063081741e-01 0.000000000e+00
    outer loop
      vertex -1.117101032e-02 -3.015368929e-05 9.499999695e-03
      vertex -1.125000045e-02 -6.698729703e-05 -9.499999695e-03
      vertex -1.125000045e-02 -6.698729703e-05 9.499999695e-03
    endloop
  endfacet
  facet normal -5.735790133e-01 8.191502690e-01 0.000000000e+00
    outer loop
      vertex -1.125000045e-02 -6.698729703e-05 9.499999695e-03
      vertex -1.125000045e-02 -6.698729703e-05 -9.499999695e-03
      vertex -1.132139377e-02 -1.169777752e-04 -9.499999695e-03
    endloop
  endfacet
  facet normal -5.735790133e-01 8.191502690e-01 0.000000000e+00
    outer loop
      vertex -1.125000045e-02 -6.698729703e-05 9.499999695e-03
      vertex -1.132139377e-02 -1.169777752e-04 -9.499999695e-03
      vertex -1.132139377e-02 -1.169777752e-04 9.499999695e-03
    endloop
  endfacet
  facet normal -7.071068287e-01 7.071067691e-01 0.000000000e+00
    outer loop
      vertex -1.132139377e-02 -1.169777752e-04 9.499999695e-03
      vertex -1.132139377e-02 -1.169777752e-04 -9.499999695e-03
      vertex -1.138302218e-02 -1.786061912e-04 -9.499999695e-03
    endloop
  endfacet
  facet normal -7.071068287e-01 7.071067691e-01 0.000000000e+00
    outer loop
      vertex -1.132139377e-02 -1.169777752e-04 9.499999695e-03
      vertex -1.138302218e-02 -1.786061912e-04 -9.499999695e-03
      vertex -1.138302218e-02 -1.786061912e-04 9.499999695e-03
    endloop
  endfacet
  facet normal -8.191514611e-01 5.735772848e-01 0.000000000e+00
    outer loop
      vertex -1.138302218e-02 -1.786061912e-04 9.499999695e-03
      vertex -1.138302218e-02 -1.786061912e-04 -9.499999695e-03
      vertex -1.143301278e-02 -2.500000119e-04 -9.499999695e-03
    endloop
  endfacet
  facet normal -8.191514611e-01 5.735772848e-01 0.000000000e+00
    outer loop
      vertex -1.138302218e-02 -1.786061912e-04 9.499999695e-03
      vertex -1.143301278e-02 -2.500000119e-04 -9.499999695e-03
      vertex -1.143301278e-02 -2.500000119e-04 9.499999695e-03
    endloop
  endfacet
  facet normal -9.063069224e-01 4.226201773e-01 0.000000000e+00
    outer loop
      vertex -1.143301278e-02 -2.500000119e-04 9.499999695e-03
      vertex -1.143301278e-02 -2.500000119e-04 -9.499999695e-03
      vertex -1.146984659e-02 -3.289899323e-04 -9.499999695e-03
    endloop
  endfacet
  facet normal -9.063069224e-01 4.226201773e-01 0.000000000e+00
    outer loop
      vertex -1.143301278e-02 -2.500000119e-04 9.499999695e-03
      vertex -1.146984659e-02 -3.289899323e-04 -9.499999695e-03
      vertex -1.146984659e-02 -3.289899323e-04 9.499999695e-03
    endloop
  endfacet
  facet normal -9.659258127e-01 2.588190436e-01 0.000000000e+00
    outer loop
      vertex -1.146984659e-02 -3.289899323e-04 9.499999695e-03
      vertex -1.146984659e-02 -3.289899323e-04 -9.499999695e-03
      vertex -1.149240416e-02 -4.131759051e-04 -9.499999695e-03
    endloop
  endfacet
  facet normal -9.659258127e-01 2.588190436e-01 0.000000000e+00
    outer loop
      vertex -1.146984659e-02 -3.289899323e-04 9.499999695e-03
      vertex -1.149240416e-02 -4.131759051e-04 -9.499999695e-03
      vertex -1.149240416e-02 -4.131759051e-04 9.499999695e-03
    endloop
  endfacet
  facet normal -9.961949587e-01 8.715279400e-02 0.000000000e+00
    outer loop
      vertex -1.149240416e-02 -4.131759051e-04 9.499999695e-03
      vertex -1.149240416e-02 -4.131759051e-04 -9.499999695e-03
      vertex -1.150000002e-02 -5.000000237e-04 -9.499999695e-03
    endloop
  endfacet
  facet normal -9.961949587e-01 8.715279400e-02 0.000000000e+00
    outer loop
      vertex -1.149240416e-02 -4.131759051e-04 9.499999695e-03
      vertex -1.150000002e-02 -5.000000237e-04 -9.499999695e-03
      vertex -1.150000002e-02 -5.000000237e-04 9.499999695e-03
    endloop
  endfacet
  facet normal 9.961949587e-01 8.715279400e-02 0.000000000e+00
    outer loop
      vertex 1.009999961e-02 -5.000000237e-04 9.499999695e-03
      vertex 1.009999961e-02 -5.000000237e-04 -9.499999695e-03
      vertex 1.009240374e-02 -4.131759051e-04 -9.499999695e-03
    endloop
  endfacet
  facet normal 9.961949587e-01 8.715279400e-02 0.000000000e+00
    outer loop
      vertex 1.009999961e-02 -5.000000237e-04 9.499999695e-03
      vertex 1.009240374e-02 -4.131759051e-04 -9.499999695e-03
      vertex 1.009240374e-02 -4.131759051e-04 9.499999695e-03
    endloop
  endfacet
  facet normal 9.659258127e-01 2.588190436e-01 0.000000000e+00
    outer loop
      vertex 1.009240374e-02 -4.131759051e-04 9.499999695e-03
      vertex 1.009240374e-02 -4.131759051e-04 -9.499999695e-03
      vertex 1.006984618e-02 -3.289899323e-04 -9.499999695e-03
    endloop
  endfacet
  facet normal 9.659258127e-01 2.588190436e-01 0.000000000e+00
    outer loop
      vertex 1.009240374e-02 -4.131759051e-04 9.499999695e-03
      vertex 1.006984618e-02 -3.289899323e-04 -9.499999695e-03
      vertex 1.006984618e-02 -3.289899323e-04 9.499999695e-03
    endloop
  endfacet
  facet normal 9.063069224e-01 4.226201773e-01 0.000000000e+00
    outer loop
      vertex 1.006984618e-02 -3.289899323e-04 9.499999695e-03
      vertex 1.006984618e-02 -3.289899323e-04 -9.499999695e-03
      vertex 1.003301237e-02 -2.500000119e-04 -9.499999695e-03
    endloop
  endfacet
  facet normal 9.063069224e-01 4.226201773e-01 0.000000000e+00
    outer loop
      vertex 1.006984618e-02 -3.289899323e-04 9.499999695e-03
      vertex 1.003301237e-02 -2.500000119e-04 -9.499999695e-03
      vertex 1.003301237e-02 -2.500000119e-04 9.499999695e-03
    endloop
  endfacet
  facet normal 8.191514611e-01 5.735772848e-01 0.000000000e+00
    outer loop
      vertex 1.003301237e-02 -2.500000119e-04 9.499999695e-03
      vertex 1.003301237e-02 -2.500000119e-04 -9.499999695e-03
      vertex 9.983021766e-03 -1.786061912e-04 -9.499999695e-03
    endloop
  endfacet
  facet normal 8.191514611e-01 5.735772848e-01 0.000000000e+00
    outer loop
      vertex 1.003301237e-02 -2.500000119e-04 9.499999695e-03
      vertex 9.983021766e-03 -1.786061912e-04 -9.499999695e-03
      vertex 9.983021766e-03 -1.786061912e-04 9.499999695e-03
    endloop
  endfacet
  facet normal 7.071068287e-01 7.071067691e-01 0.000000000e+00
    outer loop
      vertex 9.983021766e-03 -1.786061912e-04 9.499999695e-03
      vertex 9.983021766e-03 -1.786061912e-04 -9.499999695e-03
      vertex 9.921393357e-03 -1.169777752e-04 -9.499999695e-03
    endloop
  endfacet
  facet normal 7.071068287e-01 7.071067691e-01 0.000000000e+00
    outer loop
      vertex 9.983021766e-03 -1.786061912e-04 9.499999695e-03
      vertex 9.921393357e-03 -1.169777752e-04 -9.499999695e-03
      vertex 9.921393357e-03 -1.169777752e-04 9.499999695e-03
    endloop
  endfacet
  facet normal 5.735790133e-01 8.191502690e-01 0.000000000e+00
    outer loop
      vertex 9.921393357e-03 -1.169777752e-04 9.499999695e-03
      vertex 9.921393357e-03 -1.169777752e-04 -9.499999695e-03
      vertex 9.850000031e-03 -6.698729703e-05 -9.499999695e-03
    endloop
  endfacet
  facet normal 5.735790133e-01 8.191502690e-01 0.000000000e+00
    outer loop
      vertex 9.921393357e-03 -1.169777752e-04 9.499999695e-03
      vertex 9.850000031e-03 -6.698729703e-05 -9.499999695e-03
      vertex 9.850000031e-03 -6.698729703e-05 9.499999695e-03
    endloop
  endfacet
  facet normal 4.226174057e-01 9.063081741e-01 0.000000000e+00
    outer loop
      vertex 9.850000031e-03 -6.698729703e-05 9.499999695e-03
      vertex 9.850000031e-03 -6.698729703e-05 -9.499999695e-03
      vertex 9.771009907e-03 -3.015368929e-05 -9.499999695e-03
    endloop
  endfacet
  facet normal 4.226174057e-01 9.063081741e-01 0.000000000e+00
    outer loop
      vertex 9.850000031e-03 -6.698729703e-05 9.499999695e-03
      vertex 9.771009907e-03 -3.015368929e-05 -9.499999695e-03
      vertex 9.771009907e-03 -3.015368929e-05 9.499999695e-03
    endloop
  endfacet
  facet normal 2.588190734e-01 9.659258127e-01 0.000000000e+00
    outer loop
      vertex 9.771009907e-03 -3.015368929e-05 9.499999695e-03
      vertex 9.771009907e-03 -3.015368929e-05 -9.499999695e-03
      vertex 9.686823934e-03 -7.596123396e-06 -9.499999695e-03
    endloop
  endfacet
  facet normal 2.588190734e-01 9.659258127e-01 0.000000000e+00
    outer loop
      vertex 9.771009907e-03 -3.015368929e-05 9.499999695e-03
      vertex 9.686823934e-03 -7.596123396e-06 -9.499999695e-03
      vertex 9.686823934e-03 -7.596123396e-06 9.499999695e-03
    endloop
  endfacet
  facet normal 8.715634793e-02 9.961946607e-01 0.000000000e+00
    outer loop
      vertex 9.686823934e-03 -7.596123396e-06 9.499999695e-03
      vertex 9.686823934e-03 -7.596123396e-06 -9.499999695e-03
      vertex 9.600000456e-03 0.000000000e+00 -9.499999695e-03
    endloop
  endfacet
  facet normal 8.715634793e-02 9.961946607e-01 0.000000000e+00
    outer loop
      vertex 9.686823934e-03 -7.596123396e-06 9.499999695e-03
      vertex 9.600000456e-03 0.000000000e+00 -9.499999695e-03
      vertex 9.600000456e-03 0.000000000e+00 9.499999695e-03
    endloop
  endfacet
endsolid left_hand_thumb_0_link
